<svg width="100" height="35" viewBox="0 0 100 35" fill="none" xmlns="http://www.w3.org/2000/svg">
<path d="M60.266 0.737915H64.8811V34.6984H60.266V0.737915ZM72.2392 14.6704H77.9864L69.3657 22.9429L78.8572 34.6984H73.1536L63.575 22.9429L72.2392 14.6704Z" fill="white"/>
<path fill-rule="evenodd" clip-rule="evenodd" d="M48.1044 20.9716H33.2804C30.8525 20.9716 28.8843 22.9398 28.8843 25.3678C28.8843 27.7957 30.8525 29.7639 33.2804 29.7639H48.1045C50.5324 29.7639 52.5006 27.7957 52.5006 25.3678C52.5006 22.9398 50.5324 20.9716 48.1044 20.9716ZM33.2804 16.0372C28.1273 16.0372 23.9498 20.2146 23.9498 25.3678C23.9498 30.5209 28.1273 34.6983 33.2804 34.6983H48.1045C53.2576 34.6983 57.435 30.5209 57.435 25.3678C57.435 20.2146 53.2576 16.0372 48.1044 16.0372H33.2804Z" fill="#FFAA17"/>
<path d="M4.56427 18.9807V16.4554H9.48419C10.442 16.4554 11.2838 16.2958 12.0095 15.9765C12.7351 15.6572 13.3011 15.2073 13.7075 14.6268C14.1138 14.0172 14.317 13.2916 14.317 12.4498C14.317 11.1727 13.8671 10.1858 12.9673 9.48918C12.0675 8.79255 10.9065 8.44424 9.48419 8.44424H5.78337V30.475H10.0502C11.2112 30.475 12.2417 30.2864 13.1415 29.909C14.0413 29.5317 14.7524 28.9657 15.2749 28.211C15.7974 27.4563 16.0586 26.513 16.0586 25.381C16.0586 24.5682 15.899 23.8571 15.5797 23.2475C15.2894 22.609 14.8685 22.0865 14.317 21.6801C13.7946 21.2447 13.1705 20.94 12.4448 20.7658C11.7192 20.5626 10.921 20.461 10.0502 20.461H4.56427V17.631H10.355C11.8353 17.631 13.2286 17.7906 14.5347 18.1099C15.8409 18.4292 17.0019 18.9227 18.0179 19.5903C19.0628 20.2579 19.8755 21.1141 20.456 22.1591C21.0366 23.204 21.3268 24.4521 21.3268 25.9034C21.3268 27.9062 20.8479 29.5607 19.89 30.8669C18.9612 32.1731 17.6695 33.1454 16.0151 33.784C14.3896 34.3935 12.5029 34.6983 10.355 34.6983H0.645752V4.22095H9.8325C11.7482 4.22095 13.4317 4.49669 14.883 5.04819C16.3634 5.59968 17.5099 6.44144 18.3226 7.57346C19.1644 8.70547 19.5853 10.1423 19.5853 11.8838C19.5853 13.3932 19.1644 14.6848 18.3226 15.7588C17.5099 16.8037 16.3634 17.602 14.883 18.1535C13.4317 18.705 11.7482 18.9807 9.8325 18.9807H4.56427Z" fill="white"/>
<path d="M92.9404 14.6959H98.9126L92.6261 24.44L99.3412 34.6983H93.369L89.7114 28.0404L85.9396 34.6983H79.9674L86.8254 24.44L80.6818 14.6959H86.6539L89.74 20.4966L92.9404 14.6959Z" fill="white"/>
</svg>
